<?xml version="1.0" encoding="utf-8"?>
<!-- Generator: Adobe Illustrator 19.2.0, SVG Export Plug-In . SVG Version: 6.00 Build 0)  -->
<svg version="1.1" id="Layer_1" xmlns="http://www.w3.org/2000/svg" xmlns:xlink="http://www.w3.org/1999/xlink" x="0px" y="0px"
	 width="26px" height="26px" viewBox="0 0 26 26" style="enable-background:new 0 0 26 26;" xml:space="preserve">
<g id="_x35_6-interface_-_like_heart_love">
	<g>
		<path d="M18.5,1C15,1,13,4.8,13,4.8S10.9,1,7.5,1c-4.7,0-7,2.4-7,7.3C0.5,14.5,13,26,13,26S25.5,14.4,25.5,8.3
			C25.5,3.4,23.2,1,18.5,1z M13.9,5.3c0,0,1.8-3.2,4.6-3.2c4.2,0,6,1.9,6,6.3c0,4.3-7.8,12.6-11.5,16.2C9.2,21,1.5,12.7,1.5,8.3
			S3.4,2,7.5,2c2.7,0,4.6,3.2,4.6,3.3"/>
	</g>
</g>
</svg>
